<svg width="347" height="406" viewBox="0 0 347 406" fill="none" xmlns="http://www.w3.org/2000/svg">
    <g filter="url(#filter0_d_620_2)">
        <rect width="317" height="375" transform="translate(15 15.7451)" fill="white"/>
        <path d="M93.9844 119.745L85.6641 91.4639H93.9453L97.9297 109.159H98.1641L102.812 91.4639H109.375L114.062 109.237H114.297L118.281 91.4639H126.562L118.242 119.745H111.094L106.211 103.573H105.977L101.094 119.745H93.9844ZM132.812 119.745H124.766L134.18 91.4639H144.297L153.672 119.745H145.664L143.984 114.198H134.492L132.812 119.745ZM136.211 108.573H142.266L139.336 99.0811H139.102L136.211 108.573ZM180.82 91.4639V119.745H174.609L164.102 104.472H163.906V119.745H156.484V91.4639H162.812L173.164 106.659H173.398V91.4639H180.82ZM183.828 97.4795V91.4639H208.203V97.4795H199.688V119.745H192.344V97.4795H183.828ZM211.211 119.745V91.4639H231.406V97.4795H218.633V102.597H230.352V108.612H218.633V113.729H231.367V119.745H211.211ZM246.055 119.745H235.312V91.4639H245.977C254.688 91.4639 260.117 96.7764 260.117 105.604C260.117 114.433 254.688 119.745 246.055 119.745ZM242.734 113.417H245.781C250.156 113.417 252.617 111.581 252.617 105.604C252.617 99.6279 250.156 97.792 245.586 97.792H242.734V113.417Z" fill="#494949"/>
        <g clip-path="url(#clip0_620_2)">
            <rect x="93.5" y="160.745" width="160" height="160" rx="10" fill="#F6F2FF"/>
            <path d="M176.253 236.039L172.326 236.039C169.911 236.039 167.953 237.423 167.953 239.129L167.953 399.465C167.953 401.171 169.911 402.555 172.326 402.555L176.253 402.555C178.668 402.555 180.626 401.171 180.626 399.465L180.626 239.129C180.626 237.423 178.669 236.039 176.253 236.039Z" fill="url(#paint0_linear_620_2)"/>
            <path d="M177.298 177.832L191.527 204.185C192.169 205.38 193.407 206.197 194.851 206.386L226.651 210.621C230.274 211.103 231.719 215.169 229.094 217.505L206.076 238.02C205.033 238.952 204.563 240.283 204.804 241.593L210.24 270.554C210.859 273.844 207.076 276.359 203.843 274.808L175.39 261.143C174.094 260.525 172.558 260.525 171.286 261.143L142.834 274.805C139.601 276.355 135.807 273.851 136.437 270.55L141.869 241.589C142.11 240.279 141.639 238.949 140.596 238.016L117.576 217.499C114.951 215.162 116.406 211.107 120.017 210.615L151.828 206.394C153.273 206.205 154.499 205.378 155.153 204.194L169.389 177.832C171.016 174.835 175.693 174.836 177.298 177.832Z" fill="url(#paint1_linear_620_2)"/>
            <g filter="url(#filter1_d_620_2)">
                <rect x="123.5" y="272.608" width="99" height="32" rx="5" transform="rotate(-6.88223 123.5 272.608)" fill="white" shape-rendering="crispEdges"/>
                <path d="M130.69 282.505L133.575 282.157L137.613 289.397L137.737 289.382L139.936 281.389L142.821 281.041L144.176 292.272L141.912 292.545L141.024 285.192L140.931 285.204L138.881 292.864L137.33 293.051L133.512 286.068L133.419 286.079L134.311 293.463L132.046 293.736L130.69 282.505ZM147.946 291.817L145.433 292.12L147.971 280.419L150.965 280.058L156.199 290.821L153.701 291.122L152.551 288.633L148.486 289.123L147.946 291.817ZM148.857 287.237L151.742 286.889L149.812 282.762L149.734 282.772L148.857 287.237ZM163.485 282.214C163.048 281.196 162.116 280.648 160.89 280.796C159.153 281.005 158.135 282.482 158.42 284.84C158.706 287.213 160.017 288.424 161.801 288.209C163.406 288.015 164.251 286.992 164.111 285.569L161.675 285.863L161.464 284.11L166.148 283.545L166.317 284.941C166.673 287.888 164.873 289.931 162.034 290.274C158.885 290.654 156.479 288.71 156.05 285.157C155.61 281.512 157.632 279.096 160.595 278.738C163.123 278.433 165.265 279.748 165.843 281.929L163.485 282.214ZM169.549 277.815L170.904 289.046L168.577 289.327L167.222 278.096L169.549 277.815ZM179.421 280.589C179.085 279.371 178.032 278.727 176.729 278.884C174.976 279.096 173.991 280.584 174.275 282.942C174.567 285.362 175.886 286.509 177.608 286.301C178.896 286.146 179.756 285.318 179.842 284.08L182.202 283.811C182.189 285.921 180.68 288.023 177.826 288.368C174.817 288.731 172.344 286.889 171.902 283.228C171.46 279.567 173.47 277.184 176.433 276.827C179.024 276.514 181.158 277.767 181.779 280.305L179.421 280.589ZM187.952 286.988L186.597 275.757L191.002 275.225C193.562 274.917 195.209 276.307 195.477 278.526C195.748 280.775 194.445 282.49 191.854 282.803L189.837 283.046L190.279 286.707L187.952 286.988ZM189.611 281.169L191.255 280.971C192.636 280.804 193.209 279.948 193.073 278.816C192.938 277.699 192.179 277.019 190.798 277.186L189.154 277.384L189.611 281.169ZM207.456 278.937C207.898 282.598 205.873 284.983 202.91 285.34C199.916 285.702 197.394 283.85 196.954 280.204C196.513 276.543 198.523 274.16 201.517 273.799C204.48 273.441 207.014 275.276 207.456 278.937ZM205.083 279.223C204.793 276.819 203.503 275.653 201.766 275.862C200.028 276.072 199.038 277.513 199.328 279.918C199.618 282.322 200.923 283.487 202.661 283.277C204.398 283.067 205.373 281.628 205.083 279.223ZM214.938 275.594C214.738 274.721 213.961 274.28 212.828 274.417C211.649 274.559 211.063 275.181 211.138 275.927C211.22 276.736 212.118 277.005 213.106 277.106L214.144 277.233C216.12 277.435 217.681 278.238 217.907 280.115C218.156 282.178 216.7 283.676 213.97 284.005C211.255 284.333 209.366 283.286 209.014 280.889L211.279 280.616C211.493 281.739 212.462 282.204 213.703 282.054C214.929 281.907 215.65 281.237 215.549 280.399C215.458 279.639 214.716 279.367 213.454 279.204L212.192 279.058C210.244 278.821 208.966 278.015 208.768 276.371C208.521 274.323 210.157 272.756 212.608 272.46C215.09 272.161 216.901 273.343 217.172 275.325L214.938 275.594Z" fill="black"/>
            </g>
            <circle cx="123.5" cy="290.745" r="5" fill="url(#paint2_linear_620_2)"/>
            <circle cx="225.5" cy="276.745" r="5" fill="url(#paint3_linear_620_2)"/>
        </g>
    </g>
    <g filter="url(#filter2_d_620_2)">
        <path d="M41.5772 14.8324L41.5772 27.829C41.5772 29.4212 40.9447 30.9481 39.8189 32.074C38.693 33.1998 37.1661 33.8323 35.5739 33.8323C33.9817 33.8323 32.4547 33.1998 31.3289 32.074C30.203 30.9481 29.5705 29.4212 29.5705 27.829L29.5705 14.8324C29.5705 13.7709 29.9922 12.7529 30.7428 12.0024C31.4933 11.2518 32.5113 10.8301 33.5728 10.8301C34.6342 10.8301 35.6522 11.2518 36.4028 12.0024C37.1533 12.7529 37.575 13.7709 37.575 14.8324" stroke="#C1C1C1" stroke-linecap="square" stroke-linejoin="round"/>
    </g>
    <defs>
        <filter id="filter0_d_620_2" x="0" y="0.745117" width="347" height="405" filterUnits="userSpaceOnUse" color-interpolation-filters="sRGB">
            <feFlood flood-opacity="0" result="BackgroundImageFix"/>
            <feColorMatrix in="SourceAlpha" type="matrix" values="0 0 0 0 0 0 0 0 0 0 0 0 0 0 0 0 0 0 127 0" result="hardAlpha"/>
            <feOffset/>
            <feGaussianBlur stdDeviation="7.5"/>
            <feComposite in2="hardAlpha" operator="out"/>
            <feColorMatrix type="matrix" values="0 0 0 0 0 0 0 0 0 0 0 0 0 0 0 0 0 0 0.15 0"/>
            <feBlend mode="normal" in2="BackgroundImageFix" result="effect1_dropShadow_620_2"/>
            <feBlend mode="normal" in="SourceGraphic" in2="effect1_dropShadow_620_2" result="shape"/>
        </filter>
        <filter id="filter1_d_620_2" x="113.5" y="250.745" width="122.125" height="63.6328" filterUnits="userSpaceOnUse" color-interpolation-filters="sRGB">
            <feFlood flood-opacity="0" result="BackgroundImageFix"/>
            <feColorMatrix in="SourceAlpha" type="matrix" values="0 0 0 0 0 0 0 0 0 0 0 0 0 0 0 0 0 0 127 0" result="hardAlpha"/>
            <feOffset/>
            <feGaussianBlur stdDeviation="5"/>
            <feComposite in2="hardAlpha" operator="out"/>
            <feColorMatrix type="matrix" values="0 0 0 0 0 0 0 0 0 0 0 0 0 0 0 0 0 0 0.25 0"/>
            <feBlend mode="normal" in2="BackgroundImageFix" result="effect1_dropShadow_620_2"/>
            <feBlend mode="normal" in="SourceGraphic" in2="effect1_dropShadow_620_2" result="shape"/>
        </filter>
        <filter id="filter2_d_620_2" x="27.0703" y="8.33008" width="17.0078" height="28.002" filterUnits="userSpaceOnUse" color-interpolation-filters="sRGB">
            <feFlood flood-opacity="0" result="BackgroundImageFix"/>
            <feColorMatrix in="SourceAlpha" type="matrix" values="0 0 0 0 0 0 0 0 0 0 0 0 0 0 0 0 0 0 127 0" result="hardAlpha"/>
            <feOffset/>
            <feGaussianBlur stdDeviation="1"/>
            <feComposite in2="hardAlpha" operator="out"/>
            <feColorMatrix type="matrix" values="0 0 0 0 0 0 0 0 0 0 0 0 0 0 0 0 0 0 0.25 0"/>
            <feBlend mode="normal" in2="BackgroundImageFix" result="effect1_dropShadow_620_2"/>
            <feBlend mode="normal" in="SourceGraphic" in2="effect1_dropShadow_620_2" result="shape"/>
        </filter>
        <linearGradient id="paint0_linear_620_2" x1="184.03" y1="307.827" x2="163.92" y2="309.064" gradientUnits="userSpaceOnUse">
            <stop stop-color="#121416"/>
            <stop offset="1" stop-color="#121416" stop-opacity="0.5"/>
        </linearGradient>
        <linearGradient id="paint1_linear_620_2" x1="213.256" y1="197.233" x2="140.574" y2="276.751" gradientUnits="userSpaceOnUse">
            <stop stop-color="#FFBB38"/>
            <stop offset="1" stop-color="#FFDE9E"/>
        </linearGradient>
        <linearGradient id="paint2_linear_620_2" x1="128.167" y1="289.412" x2="118.833" y2="292.745" gradientUnits="userSpaceOnUse">
            <stop stop-color="#45454A"/>
            <stop offset="1" stop-color="#969699"/>
        </linearGradient>
        <linearGradient id="paint3_linear_620_2" x1="230.167" y1="275.412" x2="220.833" y2="278.745" gradientUnits="userSpaceOnUse">
            <stop stop-color="#969699"/>
            <stop offset="1" stop-color="#45454A"/>
        </linearGradient>
        <clipPath id="clip0_620_2">
            <rect x="93.5" y="160.745" width="160" height="160" rx="10" fill="white"/>
        </clipPath>
    </defs>
</svg>
