<svg width="277" height="226" viewBox="0 0 277 226" fill="none" xmlns="http://www.w3.org/2000/svg">
    <ellipse cx="138.5" cy="202.5" rx="138.5" ry="23.5" fill="url(#paint0_radial_2417_14604)" fill-opacity="0.2"/>
    <g clip-path="url(#clip0_2417_14604)">
        <path d="M246.232 177.22V180.38C246.232 182.33 244.652 183.91 242.702 183.91H177.202L173.042 182.15L176.692 180.85C176.692 180.85 172.252 179.28 171.732 179.02C171.212 178.76 177.992 176.84 177.992 176.84L171.992 174.59L173.572 173.69H242.702C244.652 173.69 246.232 175.27 246.232 177.22Z" fill="url(#paint1_linear_2417_14604)"/>
        <g filter="url(#filter0_d_2417_14604)">
            <path d="M137.079 180.12L140.569 183.01L67.2293 160.93C65.3593 160.37 64.3093 158.4 64.8693 156.53L65.7793 153.49C66.3393 151.62 68.3093 150.57 70.1793 151.13L140.029 172.16L138.259 172.57L143.359 176.45C143.359 176.45 136.309 176.33 136.739 176.73C137.159 177.14 140.959 179.91 140.959 179.91L137.089 180.11L137.079 180.12Z" fill="url(#paint2_linear_2417_14604)" shape-rendering="crispEdges"/>
        </g>
        <path d="M32.7678 139.71L56.6278 135.71C57.7078 135.53 58.6278 134.83 59.0878 133.84L69.3178 111.92C70.4778 109.43 73.9978 109.35 75.2678 111.79L86.4478 133.24C86.9478 134.21 87.8978 134.87 88.9878 135L112.998 137.96C115.728 138.3 116.888 141.62 114.958 143.58L98.0078 160.84C97.2378 161.62 96.9078 162.73 97.1178 163.8L101.728 187.55C102.248 190.25 99.4477 192.38 96.9877 191.15L75.3378 180.36C74.3578 179.87 73.2078 179.9 72.2478 180.43L51.0878 192.15C48.6778 193.48 45.7878 191.48 46.1978 188.76L49.7678 164.83C49.9278 163.75 49.5478 162.66 48.7478 161.91L31.0578 145.41C29.0478 143.53 30.0578 140.16 32.7778 139.71H32.7678Z" fill="url(#paint3_linear_2417_14604)"/>
    </g>
    <path d="M21 41L21 105" stroke="url(#paint4_linear_2417_14604)" stroke-opacity="0.5" stroke-width="3" stroke-linecap="round"/>
    <path d="M37 21L37 85" stroke="url(#paint5_linear_2417_14604)" stroke-opacity="0.5" stroke-width="3" stroke-linecap="round"/>
    <path d="M59 2L59 66" stroke="url(#paint6_linear_2417_14604)" stroke-opacity="0.5" stroke-width="3" stroke-linecap="round"/>
    <path d="M83 18L83 82" stroke="url(#paint7_linear_2417_14604)" stroke-opacity="0.5" stroke-width="3" stroke-linecap="round"/>
    <defs>
        <filter id="filter0_d_2417_14604" x="60.7188" y="146.979" width="86.6406" height="40.0303" filterUnits="userSpaceOnUse" color-interpolation-filters="sRGB">
            <feFlood flood-opacity="0" result="BackgroundImageFix"/>
            <feColorMatrix in="SourceAlpha" type="matrix" values="0 0 0 0 0 0 0 0 0 0 0 0 0 0 0 0 0 0 127 0" result="hardAlpha"/>
            <feOffset/>
            <feGaussianBlur stdDeviation="2"/>
            <feComposite in2="hardAlpha" operator="out"/>
            <feColorMatrix type="matrix" values="0 0 0 0 0 0 0 0 0 0 0 0 0 0 0 0 0 0 0.25 0"/>
            <feBlend mode="normal" in2="BackgroundImageFix" result="effect1_dropShadow_2417_14604"/>
            <feBlend mode="normal" in="SourceGraphic" in2="effect1_dropShadow_2417_14604" result="shape"/>
        </filter>
        <radialGradient id="paint0_radial_2417_14604" cx="0" cy="0" r="1" gradientUnits="userSpaceOnUse" gradientTransform="translate(138.5 202.5) rotate(90) scale(23.5 138.5)">
            <stop/>
            <stop offset="1" stop-opacity="0"/>
        </radialGradient>
        <linearGradient id="paint1_linear_2417_14604" x1="208.962" y1="183.59" x2="208.962" y2="174.03" gradientUnits="userSpaceOnUse">
            <stop stop-color="#121416" stop-opacity="0.5"/>
            <stop offset="1" stop-color="#121416"/>
        </linearGradient>
        <linearGradient id="paint2_linear_2417_14604" x1="102.683" y1="171.262" x2="105.438" y2="162.107" gradientUnits="userSpaceOnUse">
            <stop stop-color="#121416" stop-opacity="0.5"/>
            <stop offset="1" stop-color="#121416"/>
        </linearGradient>
        <linearGradient id="paint3_linear_2417_14604" x1="30.1493" y1="142.028" x2="108.728" y2="165.677" gradientUnits="userSpaceOnUse">
            <stop stop-color="#FFBB38"/>
            <stop offset="1" stop-color="#FFDE9E"/>
        </linearGradient>
        <linearGradient id="paint4_linear_2417_14604" x1="20.0001" y1="34" x2="20.0001" y2="106.5" gradientUnits="userSpaceOnUse">
            <stop stop-color="#808080"/>
            <stop offset="1" stop-color="#0A1344" stop-opacity="0.8"/>
        </linearGradient>
        <linearGradient id="paint5_linear_2417_14604" x1="36.0001" y1="14" x2="36.0001" y2="86.5" gradientUnits="userSpaceOnUse">
            <stop stop-color="#808080"/>
            <stop offset="1" stop-color="#0A1344" stop-opacity="0.8"/>
        </linearGradient>
        <linearGradient id="paint6_linear_2417_14604" x1="58.0001" y1="-5" x2="58.0001" y2="67.5" gradientUnits="userSpaceOnUse">
            <stop stop-color="#808080"/>
            <stop offset="1" stop-color="#0A1344" stop-opacity="0.8"/>
        </linearGradient>
        <linearGradient id="paint7_linear_2417_14604" x1="82.0001" y1="11" x2="82.0001" y2="83.5" gradientUnits="userSpaceOnUse">
            <stop stop-color="#808080"/>
            <stop offset="1" stop-color="#0A1344" stop-opacity="0.8"/>
        </linearGradient>
        <clipPath id="clip0_2417_14604">
            <rect width="216.23" height="82.57" fill="white" transform="translate(30 110)"/>
        </clipPath>
    </defs>
</svg>
