<svg width="148" height="147" viewBox="0 0 148 147" fill="none" xmlns="http://www.w3.org/2000/svg">
    <g clip-path="url(#clip0_2415_14556)">
        <path d="M46.5736 43.4509L44.332 45.6924C42.9535 47.0709 42.6591 49.0116 43.6745 50.0271L139.074 145.426C140.089 146.441 142.03 146.147 143.408 144.769L145.65 142.527C147.028 141.148 147.323 139.208 146.307 138.192L50.9082 42.7934C49.8928 41.7779 47.9521 42.0723 46.5736 43.4509Z" fill="url(#paint0_linear_2415_14556)"/>
        <path d="M12.3445 8.02657L35.8054 15.9833C36.8672 16.3455 38.029 16.1582 38.9285 15.4837L58.779 0.681901C61.0402 -1.00438 64.2507 0.631937 64.2132 3.45489L63.9009 28.2244C63.8884 29.3486 64.4256 30.3978 65.3376 31.0474L85.5629 45.3495C87.8615 46.9733 87.2993 50.5332 84.6134 51.3701L60.9652 58.7273C59.8908 59.0645 59.0538 59.9014 58.729 60.9631L51.371 84.6085C50.534 87.294 46.9736 87.8686 45.3496 85.5578L31.0457 65.335C30.3961 64.4231 29.3468 63.886 28.2224 63.8985L3.44988 64.2108C0.626581 64.2483 -0.99744 61.0381 0.676551 58.7772L15.4926 38.9291C16.1672 38.0298 16.3421 36.8681 15.9923 35.8064L8.03461 12.3359C7.13516 9.66288 9.68362 7.11473 12.3445 8.02657Z" fill="url(#paint1_linear_2415_14556)"/>
    </g>
    <defs>
        <linearGradient id="paint0_linear_2415_14556" x1="93.7257" y1="81.7257" x2="82.9216" y2="93.8851" gradientUnits="userSpaceOnUse">
            <stop stop-color="#121416"/>
            <stop offset="1" stop-color="#121416" stop-opacity="0.5"/>
        </linearGradient>
        <linearGradient id="paint1_linear_2415_14556" x1="43.5" y1="0" x2="43.5" y2="87" gradientUnits="userSpaceOnUse">
            <stop stop-color="#FFBB38"/>
            <stop offset="1" stop-color="#FFDE9E"/>
        </linearGradient>
        <clipPath id="clip0_2415_14556">
            <rect width="148" height="147" fill="white"/>
        </clipPath>
    </defs>
</svg>
