<svg width="1320" height="300" viewBox="0 0 1320 300" fill="none" xmlns="http://www.w3.org/2000/svg">
<path d="M14.3555 44.8906L83.7891 44.8906L134.18 168.23H136.816L187.207 44.8906L256.641 44.8906V257H202.148L202.148 132.195H200.391L152.051 255.535H118.652L70.6055 131.316H68.8477V257H14.3555L14.3555 44.8906Z" fill="#5200FF" fill-opacity="0.07"/>
<path d="M409.047 257H348.695L419.301 44.8906H495.18L565.492 257H505.434L492.836 215.398H421.645L409.047 257ZM434.535 173.211H479.945L457.973 102.02H456.215L434.535 173.211Z" fill="#5200FF" fill-opacity="0.07"/>
<path d="M795.844 114.617C792.035 99.3828 779.438 90.5938 760.688 90.5938C731.098 90.5938 713.812 112.859 713.812 150.652C713.812 188.738 729.926 211.297 760.395 211.297C786.908 211.297 800.385 198.846 800.824 179.07H761.566V139.227H854.73V168.23C854.73 225.945 815.18 259.93 759.809 259.93C698.285 259.93 656.391 218.328 656.391 151.238C656.391 81.5117 702.387 41.9609 759.516 41.9609C809.32 41.9609 847.699 72.1367 852.387 114.617H795.844Z" fill="#5200FF" fill-opacity="0.07"/>
<path d="M1009.77 44.8906V257H954.105V44.8906L1009.77 44.8906Z" fill="#5200FF" fill-opacity="0.07"/>
<path d="M1250.1 123.699C1248.34 103.777 1234.87 90.5938 1212.31 90.5938C1183.01 90.5938 1166.31 113.152 1166.31 150.945C1166.31 190.789 1183.3 211.297 1212.02 211.297C1233.4 211.297 1247.17 199.578 1250.1 180.828L1306.64 181.414C1303.71 217.742 1271.78 259.93 1210.84 259.93C1152.54 259.93 1108.89 221.258 1108.89 150.945C1108.89 80.3398 1153.71 41.9609 1210.84 41.9609C1263.58 41.9609 1301.96 71.5508 1306.64 123.699H1250.1Z" fill="#5200FF" fill-opacity="0.07"/>
</svg>
