<svg width="current" height="current" viewBox="0 0 210 43" fill="none" xmlns="http://www.w3.org/2000/svg">
<circle cx="10" cy="10" r="10" fill="#5200FF"/>
<path d="M27.5107 9.54545H33.1534L40.7102 27.9901H41.0085L48.5653 9.54545H54.2081V35H49.7834V17.5124H49.5472L42.5124 34.9254H39.2063L32.1715 17.4751H31.9354V35H27.5107V9.54545ZM64.5241 35.3853C63.3144 35.3853 62.2248 35.1699 61.2553 34.739C60.2942 34.2998 59.5318 33.6535 58.9684 32.8001C58.4132 31.9466 58.1357 30.8943 58.1357 29.6431C58.1357 28.5659 58.3345 27.6752 58.7322 26.9709C59.13 26.2666 59.6727 25.7031 60.3604 25.2805C61.0482 24.858 61.8229 24.5389 62.6847 24.3235C63.5547 24.0998 64.4537 23.9382 65.3817 23.8388C66.5004 23.7228 67.4077 23.6192 68.1037 23.5281C68.7997 23.4286 69.3052 23.2795 69.62 23.0806C69.9432 22.8735 70.1048 22.5544 70.1048 22.1236V22.049C70.1048 21.1127 69.8272 20.3877 69.272 19.8739C68.7169 19.3602 67.9173 19.1033 66.8732 19.1033C65.7712 19.1033 64.897 19.3436 64.2507 19.8242C63.6127 20.3048 63.1818 20.8724 62.9581 21.527L58.7571 20.9304C59.0885 19.7704 59.6354 18.8009 60.3977 18.022C61.16 17.2348 62.0922 16.6465 63.1942 16.2571C64.2963 15.8594 65.5143 15.6605 66.8484 15.6605C67.7681 15.6605 68.6837 15.7682 69.5952 15.9837C70.5066 16.1991 71.3394 16.5554 72.0934 17.0526C72.8474 17.5414 73.4523 18.2085 73.908 19.0536C74.372 19.8988 74.604 20.9553 74.604 22.223V35H70.2788V32.3775H70.1296C69.8562 32.9078 69.4709 33.4049 68.9737 33.869C68.4848 34.3247 67.8675 34.6934 67.1218 34.9751C66.3844 35.2486 65.5185 35.3853 64.5241 35.3853ZM65.6925 32.0792C66.5956 32.0792 67.3787 31.901 68.0415 31.5447C68.7044 31.1802 69.214 30.6996 69.5703 30.103C69.9349 29.5064 70.1172 28.8559 70.1172 28.1516V25.902C69.9763 26.018 69.736 26.1257 69.3963 26.2251C69.0649 26.3246 68.692 26.4116 68.2777 26.4862C67.8634 26.5607 67.4532 26.627 67.0472 26.685C66.6412 26.743 66.2891 26.7927 65.9908 26.8342C65.3196 26.9253 64.7189 27.0745 64.1886 27.2816C63.6583 27.4888 63.2398 27.7788 62.9332 28.1516C62.6267 28.5162 62.4734 28.9885 62.4734 29.5685C62.4734 30.3971 62.7758 31.0227 63.3807 31.4453C63.9856 31.8679 64.7562 32.0792 65.6925 32.0792ZM87.4308 42.5568C85.815 42.5568 84.4271 42.3372 83.267 41.8981C82.107 41.4672 81.1748 40.8872 80.4705 40.158C79.7662 39.4289 79.2773 38.621 79.0039 37.7344L83.0558 36.7525C83.238 37.1254 83.5032 37.4941 83.8512 37.8587C84.1992 38.2315 84.6674 38.5381 85.2557 38.7784C85.8523 39.027 86.6022 39.1513 87.5053 39.1513C88.7814 39.1513 89.8378 38.8406 90.6747 38.2191C91.5116 37.6059 91.93 36.5951 91.93 35.1864V31.5696H91.7063C91.4743 32.0336 91.1346 32.5101 90.6871 32.9989C90.248 33.4878 89.6638 33.898 88.9347 34.2294C88.2138 34.5608 87.3065 34.7266 86.2127 34.7266C84.7461 34.7266 83.4162 34.3827 82.223 33.695C81.0381 32.9989 80.0935 31.9632 79.3892 30.5877C78.6932 29.204 78.3452 27.4722 78.3452 25.3924C78.3452 23.296 78.6932 21.527 79.3892 20.0852C80.0935 18.6352 81.0423 17.5373 82.2354 16.7915C83.4286 16.0375 84.7585 15.6605 86.2251 15.6605C87.3438 15.6605 88.2635 15.8511 88.9844 16.2322C89.7135 16.6051 90.2936 17.0567 90.7244 17.587C91.1553 18.109 91.4826 18.602 91.7063 19.0661H91.9549V15.9091H96.392V35.3107C96.392 36.9431 96.0026 38.2937 95.2237 39.3626C94.4448 40.4315 93.3801 41.2311 92.0295 41.7614C90.6789 42.2917 89.146 42.5568 87.4308 42.5568ZM87.468 31.1967C88.4209 31.1967 89.233 30.9647 89.9041 30.5007C90.5753 30.0367 91.0849 29.3697 91.4329 28.4996C91.7809 27.6296 91.9549 26.5856 91.9549 25.3675C91.9549 24.1661 91.7809 23.1138 91.4329 22.2106C91.0932 21.3074 90.5877 20.6072 89.9165 20.1101C89.2537 19.6046 88.4375 19.3519 87.468 19.3519C86.4654 19.3519 85.6286 19.6129 84.9574 20.1349C84.2862 20.657 83.7808 21.3737 83.4411 22.2852C83.1013 23.1883 82.9315 24.2158 82.9315 25.3675C82.9315 26.5359 83.1013 27.5592 83.4411 28.4375C83.7891 29.3075 84.2987 29.987 84.9698 30.4759C85.6493 30.9564 86.482 31.1967 87.468 31.1967ZM101.003 35V15.9091H105.502V35H101.003ZM103.265 13.1996C102.553 13.1996 101.94 12.9634 101.426 12.4911C100.912 12.0105 100.655 11.4347 100.655 10.7635C100.655 10.084 100.912 9.50817 101.426 9.03586C101.94 8.55528 102.553 8.31499 103.265 8.31499C103.986 8.31499 104.599 8.55528 105.105 9.03586C105.618 9.50817 105.875 10.084 105.875 10.7635C105.875 11.4347 105.618 12.0105 105.105 12.4911C104.599 12.9634 103.986 13.1996 103.265 13.1996ZM118.457 35.3729C116.551 35.3729 114.914 34.9544 113.547 34.1175C112.188 33.2807 111.14 32.1248 110.403 30.6499C109.673 29.1667 109.309 27.4598 109.309 25.5291C109.309 23.5902 109.682 21.8791 110.427 20.396C111.173 18.9045 112.226 17.7444 113.584 16.9158C114.952 16.079 116.567 15.6605 118.432 15.6605C119.981 15.6605 121.353 15.9464 122.546 16.5181C123.747 17.0816 124.704 17.8812 125.417 18.9169C126.129 19.9444 126.535 21.1458 126.635 22.5213H122.334C122.16 21.6016 121.746 20.8351 121.092 20.2219C120.445 19.6005 119.579 19.2898 118.494 19.2898C117.574 19.2898 116.766 19.5384 116.07 20.0355C115.374 20.5244 114.831 21.2287 114.442 22.1484C114.061 23.0682 113.87 24.1702 113.87 25.4545C113.87 26.7554 114.061 27.8741 114.442 28.8104C114.823 29.7384 115.358 30.4551 116.045 30.9606C116.741 31.4577 117.558 31.7063 118.494 31.7063C119.157 31.7063 119.749 31.582 120.271 31.3335C120.802 31.0766 121.245 30.7079 121.601 30.2273C121.957 29.7467 122.202 29.1625 122.334 28.4748H126.635C126.527 29.8254 126.129 31.0227 125.442 32.0668C124.754 33.1025 123.818 33.9145 122.633 34.5028C121.448 35.0829 120.056 35.3729 118.457 35.3729ZM139.21 35V9.54545H148.755C150.711 9.54545 152.351 9.91004 153.677 10.6392C155.011 11.3684 156.018 12.371 156.697 13.647C157.385 14.9148 157.729 16.3565 157.729 17.9723C157.729 19.6046 157.385 21.0547 156.697 22.3224C156.01 23.5902 154.995 24.5887 153.652 25.3178C152.31 26.0387 150.657 26.3991 148.693 26.3991H142.367V22.6083H148.072C149.215 22.6083 150.152 22.4094 150.881 22.0117C151.61 21.614 152.148 21.0671 152.496 20.3711C152.853 19.6751 153.031 18.8755 153.031 17.9723C153.031 17.0691 152.853 16.2737 152.496 15.5859C152.148 14.8982 151.606 14.3638 150.868 13.9826C150.139 13.5932 149.199 13.3984 148.047 13.3984H143.821V35H139.21ZM184.479 22.2727C184.479 25.0154 183.966 27.3645 182.938 29.32C181.919 31.2672 180.527 32.7586 178.762 33.7944C177.005 34.8301 175.013 35.348 172.784 35.348C170.555 35.348 168.558 34.8301 166.793 33.7944C165.036 32.7504 163.644 31.2547 162.617 29.3075C161.598 27.352 161.088 25.0071 161.088 22.2727C161.088 19.5301 161.598 17.1851 162.617 15.2379C163.644 13.2824 165.036 11.7868 166.793 10.7511C168.558 9.71532 170.555 9.19744 172.784 9.19744C175.013 9.19744 177.005 9.71532 178.762 10.7511C180.527 11.7868 181.919 13.2824 182.938 15.2379C183.966 17.1851 184.479 19.5301 184.479 22.2727ZM179.843 22.2727C179.843 20.3421 179.541 18.7139 178.936 17.3881C178.339 16.0541 177.511 15.0473 176.45 14.3679C175.39 13.6802 174.167 13.3363 172.784 13.3363C171.4 13.3363 170.178 13.6802 169.117 14.3679C168.056 15.0473 167.224 16.0541 166.619 17.3881C166.022 18.7139 165.724 20.3421 165.724 22.2727C165.724 24.2034 166.022 25.8357 166.619 27.1697C167.224 28.4955 168.056 29.5022 169.117 30.19C170.178 30.8694 171.4 31.2092 172.784 31.2092C174.167 31.2092 175.39 30.8694 176.45 30.19C177.511 29.5022 178.339 28.4955 178.936 27.1697C179.541 25.8357 179.843 24.2034 179.843 22.2727ZM202.672 16.543C202.556 15.4575 202.067 14.6123 201.206 14.0075C200.352 13.4026 199.242 13.1001 197.875 13.1001C196.913 13.1001 196.089 13.2451 195.401 13.5352C194.714 13.8252 194.187 14.2187 193.823 14.7159C193.458 15.2131 193.272 15.7807 193.263 16.4187C193.263 16.949 193.384 17.4089 193.624 17.7983C193.873 18.1877 194.208 18.5192 194.631 18.7926C195.053 19.0578 195.521 19.2815 196.035 19.4638C196.549 19.6461 197.067 19.7994 197.589 19.9237L199.975 20.5202C200.936 20.744 201.86 21.0464 202.747 21.4276C203.642 21.8087 204.441 22.2893 205.146 22.8693C205.858 23.4493 206.422 24.1495 206.836 24.9698C207.25 25.7901 207.457 26.7513 207.457 27.8533C207.457 29.3448 207.076 30.6581 206.314 31.7933C205.552 32.9202 204.45 33.8027 203.008 34.4407C201.574 35.0704 199.838 35.3853 197.8 35.3853C195.82 35.3853 194.1 35.0787 192.642 34.4656C191.192 33.8524 190.057 32.9575 189.237 31.7809C188.424 30.6043 187.985 29.1708 187.919 27.4805H192.456C192.522 28.3671 192.795 29.1045 193.276 29.6928C193.757 30.2811 194.382 30.7203 195.153 31.0103C195.932 31.3003 196.802 31.4453 197.763 31.4453C198.765 31.4453 199.644 31.2962 200.398 30.9979C201.16 30.6913 201.757 30.2687 202.188 29.7301C202.618 29.1832 202.838 28.5452 202.846 27.8161C202.838 27.1532 202.643 26.6063 202.262 26.1754C201.881 25.7363 201.346 25.3717 200.659 25.0817C199.979 24.7834 199.184 24.5182 198.272 24.2862L195.376 23.5405C193.28 23.0019 191.623 22.1857 190.405 21.092C189.195 19.9899 188.59 18.5275 188.59 16.7045C188.59 15.2048 188.996 13.8915 189.808 12.7646C190.629 11.6377 191.743 10.7635 193.152 10.142C194.56 9.51231 196.155 9.19744 197.937 9.19744C199.743 9.19744 201.326 9.51231 202.685 10.142C204.052 10.7635 205.125 11.6294 205.904 12.7397C206.683 13.8417 207.085 15.1095 207.109 16.543H202.672Z" fill="#5200FF"/>
</svg>
