<svg width="current" height="current" viewBox="0 0 121 22" fill="none" xmlns="http://www.w3.org/2000/svg">
<circle cx="5" cy="5" r="5" fill="#7433FF"/>
<path d="M16.4347 2.45455H19.6591L23.9773 12.9943H24.1477L28.4659 2.45455H31.6903V17H29.1619V7.0071H29.027L25.0071 16.9574H23.1179L19.098 6.9858H18.9631V17H16.4347V2.45455ZM37.5852 17.2202C36.8939 17.2202 36.2713 17.0971 35.7173 16.8509C35.1681 16.5999 34.7325 16.2306 34.4105 15.7429C34.0933 15.2552 33.9347 14.6539 33.9347 13.9389C33.9347 13.3234 34.0483 12.8144 34.2756 12.4119C34.5028 12.0095 34.813 11.6875 35.206 11.446C35.599 11.2045 36.0417 11.0223 36.5341 10.8991C37.0313 10.7713 37.545 10.679 38.0753 10.6222C38.7145 10.5559 39.233 10.4967 39.6307 10.4446C40.0284 10.3878 40.3172 10.3026 40.4972 10.1889C40.6818 10.0705 40.7741 9.88826 40.7741 9.64205V9.59943C40.7741 9.06439 40.6155 8.65009 40.2983 8.35653C39.9811 8.06297 39.5241 7.91619 38.9276 7.91619C38.2978 7.91619 37.7983 8.0535 37.429 8.32812C37.0644 8.60275 36.8182 8.92708 36.6903 9.30114L34.2898 8.96023C34.4792 8.29735 34.7917 7.74337 35.2273 7.2983C35.6629 6.84848 36.1955 6.51231 36.8253 6.28977C37.455 6.0625 38.151 5.94886 38.9134 5.94886C39.4389 5.94886 39.9621 6.01042 40.483 6.13352C41.0038 6.25663 41.4796 6.46023 41.9105 6.74432C42.3414 7.02367 42.687 7.40483 42.9474 7.88778C43.2126 8.37074 43.3452 8.97443 43.3452 9.69886V17H40.8736V15.5014H40.7884C40.6321 15.8045 40.4119 16.0885 40.1278 16.3537C39.8485 16.6141 39.4957 16.8248 39.0696 16.9858C38.6482 17.142 38.1534 17.2202 37.5852 17.2202ZM38.2528 15.331C38.7689 15.331 39.2164 15.2292 39.5952 15.0256C39.974 14.8172 40.2652 14.5426 40.4688 14.2017C40.6771 13.8608 40.7812 13.4891 40.7812 13.0866V11.8011C40.7008 11.8674 40.5634 11.929 40.3693 11.9858C40.1799 12.0426 39.9669 12.0923 39.7301 12.1349C39.4934 12.1776 39.259 12.2154 39.027 12.2486C38.795 12.2817 38.5938 12.3101 38.4233 12.3338C38.0398 12.3859 37.6965 12.4711 37.3935 12.5895C37.0904 12.7079 36.8513 12.8736 36.6761 13.0866C36.5009 13.295 36.4134 13.5649 36.4134 13.8963C36.4134 14.3698 36.5862 14.7273 36.9318 14.9688C37.2775 15.2102 37.7178 15.331 38.2528 15.331ZM50.6747 21.3182C49.7514 21.3182 48.9583 21.1927 48.2955 20.9418C47.6326 20.6955 47.0999 20.3641 46.6974 19.9474C46.295 19.5308 46.0156 19.0691 45.8594 18.5625L48.1747 18.0014C48.2789 18.2145 48.4304 18.4252 48.6293 18.6335C48.8281 18.8466 49.0956 19.0218 49.4318 19.1591C49.7727 19.3011 50.2012 19.3722 50.7173 19.3722C51.4465 19.3722 52.0502 19.1946 52.5284 18.8395C53.0066 18.4891 53.2457 17.9115 53.2457 17.1065V15.0398H53.1179C52.9853 15.3049 52.7912 15.5772 52.5355 15.8565C52.2846 16.1359 51.9508 16.3703 51.5341 16.5597C51.1222 16.7491 50.6037 16.8438 49.9787 16.8438C49.1406 16.8438 48.3807 16.6473 47.6989 16.2543C47.0218 15.8565 46.482 15.2647 46.0795 14.4787C45.6818 13.688 45.483 12.6984 45.483 11.5099C45.483 10.312 45.6818 9.30114 46.0795 8.47727C46.482 7.64867 47.0241 7.02131 47.706 6.59517C48.3878 6.1643 49.1477 5.94886 49.9858 5.94886C50.625 5.94886 51.1506 6.05777 51.5625 6.27557C51.9792 6.48864 52.3106 6.74669 52.5568 7.04972C52.803 7.34801 52.9901 7.62973 53.1179 7.89489H53.2599V6.09091H55.7955V17.1776C55.7955 18.1103 55.5729 18.8821 55.1278 19.4929C54.6828 20.1037 54.0743 20.5606 53.3026 20.8636C52.5308 21.1667 51.6548 21.3182 50.6747 21.3182ZM50.696 14.8267C51.2405 14.8267 51.7045 14.6941 52.0881 14.429C52.4716 14.1638 52.7628 13.7827 52.9616 13.2855C53.1605 12.7884 53.2599 12.1918 53.2599 11.4957C53.2599 10.8092 53.1605 10.2079 52.9616 9.69176C52.7675 9.17566 52.4787 8.77557 52.0952 8.49148C51.7164 8.20265 51.25 8.05824 50.696 8.05824C50.1231 8.05824 49.6449 8.20739 49.2614 8.50568C48.8778 8.80398 48.589 9.21354 48.3949 9.73438C48.2008 10.2505 48.1037 10.8376 48.1037 11.4957C48.1037 12.1634 48.2008 12.7481 48.3949 13.25C48.5938 13.7472 48.8849 14.1354 49.2685 14.4148C49.6567 14.6894 50.1326 14.8267 50.696 14.8267ZM58.4304 17V6.09091H61.0014V17H58.4304ZM59.723 4.54261C59.3158 4.54261 58.9654 4.40767 58.6719 4.13778C58.3783 3.86316 58.2315 3.53409 58.2315 3.15057C58.2315 2.76231 58.3783 2.43324 58.6719 2.16335C58.9654 1.88873 59.3158 1.75142 59.723 1.75142C60.1349 1.75142 60.4853 1.88873 60.7741 2.16335C61.0677 2.43324 61.2145 2.76231 61.2145 3.15057C61.2145 3.53409 61.0677 3.86316 60.7741 4.13778C60.4853 4.40767 60.1349 4.54261 59.723 4.54261ZM68.4038 17.2131C67.3147 17.2131 66.3796 16.974 65.5984 16.4957C64.8219 16.0175 64.2229 15.357 63.8015 14.5142C63.3848 13.6667 63.1765 12.6913 63.1765 11.5881C63.1765 10.4801 63.3896 9.50237 63.8157 8.65483C64.2418 7.80256 64.8432 7.13968 65.6197 6.66619C66.4009 6.18797 67.3242 5.94886 68.3896 5.94886C69.275 5.94886 70.0586 6.11222 70.7404 6.43892C71.427 6.76089 71.9738 7.2178 72.381 7.80966C72.7882 8.39678 73.0202 9.08333 73.0771 9.86932H70.6197C70.5202 9.34375 70.2835 8.90578 69.9094 8.5554C69.5401 8.20028 69.0453 8.02273 68.4251 8.02273C67.8995 8.02273 67.4379 8.16477 67.0401 8.44886C66.6424 8.72822 66.3323 9.13068 66.1097 9.65625C65.8919 10.1818 65.783 10.8116 65.783 11.5455C65.783 12.2888 65.8919 12.928 66.1097 13.4631C66.3275 13.9934 66.6329 14.4029 67.0259 14.6918C67.4237 14.9759 67.89 15.1179 68.4251 15.1179C68.8039 15.1179 69.1424 15.0469 69.4407 14.9048C69.7437 14.758 69.997 14.5473 70.2006 14.2727C70.4042 13.9981 70.5439 13.6643 70.6197 13.2713H73.0771C73.0155 14.0431 72.7882 14.7273 72.3952 15.3239C72.0022 15.9157 71.4672 16.3797 70.7901 16.7159C70.113 17.0473 69.3176 17.2131 68.4038 17.2131ZM80.2628 17V2.45455H85.7173C86.8348 2.45455 87.7723 2.66288 88.5298 3.07955C89.2921 3.49621 89.8674 4.06913 90.2557 4.7983C90.6487 5.52273 90.8452 6.34659 90.8452 7.26989C90.8452 8.20265 90.6487 9.03125 90.2557 9.75568C89.8627 10.4801 89.2827 11.0507 88.5156 11.4673C87.7486 11.8793 86.804 12.0852 85.6818 12.0852H82.0668V9.91903H85.3267C85.9801 9.91903 86.5152 9.8054 86.9318 9.57812C87.3485 9.35085 87.6563 9.03835 87.8551 8.64062C88.0587 8.2429 88.1605 7.78598 88.1605 7.26989C88.1605 6.75379 88.0587 6.29924 87.8551 5.90625C87.6563 5.51326 87.3461 5.20786 86.9247 4.99006C86.508 4.76752 85.9706 4.65625 85.3125 4.65625H82.8977V17H80.2628ZM106.131 9.72727C106.131 11.2945 105.837 12.6368 105.25 13.7543C104.668 14.867 103.873 15.7192 102.864 16.3111C101.86 16.9029 100.721 17.1989 99.4478 17.1989C98.1741 17.1989 97.033 16.9029 96.0245 16.3111C95.0207 15.7145 94.2253 14.8598 93.6381 13.7472C93.0558 12.6297 92.7646 11.2898 92.7646 9.72727C92.7646 8.16004 93.0558 6.82008 93.6381 5.70739C94.2253 4.58996 95.0207 3.73532 96.0245 3.14347C97.033 2.55161 98.1741 2.25568 99.4478 2.25568C100.721 2.25568 101.86 2.55161 102.864 3.14347C103.873 3.73532 104.668 4.58996 105.25 5.70739C105.837 6.82008 106.131 8.16004 106.131 9.72727ZM103.482 9.72727C103.482 8.62405 103.309 7.69366 102.963 6.93608C102.623 6.17377 102.149 5.59848 101.543 5.21023C100.937 4.81723 100.239 4.62074 99.4478 4.62074C98.6571 4.62074 97.9587 4.81723 97.3526 5.21023C96.7466 5.59848 96.2707 6.17377 95.9251 6.93608C95.5842 7.69366 95.4137 8.62405 95.4137 9.72727C95.4137 10.8305 95.5842 11.7633 95.9251 12.5256C96.2707 13.2831 96.7466 13.8584 97.3526 14.2514C97.9587 14.6397 98.6571 14.8338 99.4478 14.8338C100.239 14.8338 100.937 14.6397 101.543 14.2514C102.149 13.8584 102.623 13.2831 102.963 12.5256C103.309 11.7633 103.482 10.8305 103.482 9.72727ZM116.527 6.45312C116.461 5.83286 116.181 5.34991 115.689 5.00426C115.201 4.65862 114.567 4.4858 113.786 4.4858C113.236 4.4858 112.765 4.56866 112.372 4.73438C111.979 4.90009 111.679 5.125 111.47 5.40909C111.262 5.69318 111.155 6.01752 111.151 6.3821C111.151 6.68513 111.219 6.94792 111.357 7.17045C111.499 7.39299 111.69 7.58239 111.932 7.73864C112.173 7.89015 112.441 8.01799 112.734 8.12216C113.028 8.22633 113.324 8.31392 113.622 8.38494L114.986 8.72585C115.535 8.85369 116.063 9.02651 116.57 9.24432C117.081 9.46212 117.538 9.73674 117.94 10.0682C118.348 10.3996 118.67 10.7997 118.906 11.2685C119.143 11.7372 119.261 12.2865 119.261 12.9162C119.261 13.7685 119.044 14.5189 118.608 15.1676C118.172 15.8116 117.543 16.3158 116.719 16.6804C115.9 17.0402 114.908 17.2202 113.743 17.2202C112.611 17.2202 111.629 17.045 110.795 16.6946C109.967 16.3442 109.318 15.8329 108.849 15.1605C108.385 14.4882 108.134 13.669 108.097 12.7031H110.689C110.727 13.2098 110.883 13.6312 111.158 13.9673C111.432 14.3035 111.79 14.5545 112.23 14.7202C112.675 14.8859 113.172 14.9688 113.722 14.9688C114.295 14.9688 114.796 14.8835 115.227 14.7131C115.663 14.5379 116.004 14.2964 116.25 13.9886C116.496 13.6761 116.622 13.3116 116.626 12.8949C116.622 12.5161 116.51 12.2036 116.293 11.9574C116.075 11.7064 115.769 11.4981 115.376 11.3324C114.988 11.1619 114.534 11.0104 114.013 10.8778L112.358 10.4517C111.16 10.1439 110.213 9.67756 109.517 9.05256C108.826 8.42282 108.48 7.58712 108.48 6.54545C108.48 5.68845 108.712 4.93797 109.176 4.29403C109.645 3.65009 110.282 3.15057 111.087 2.79545C111.892 2.43561 112.803 2.25568 113.821 2.25568C114.853 2.25568 115.758 2.43561 116.534 2.79545C117.315 3.15057 117.929 3.64536 118.374 4.27983C118.819 4.90956 119.048 5.634 119.062 6.45312H116.527Z" fill="#7433FF"/>
</svg>
